<?xml version="1.0" standalone="no"?>
<!DOCTYPE svg PUBLIC "-//W3C//DTD SVG 20010904//EN"
 "http://www.w3.org/TR/2001/REC-SVG-20010904/DTD/svg10.dtd">
<svg version="1.0" xmlns="http://www.w3.org/2000/svg"
 width="1024.000000pt" height="1024.000000pt" viewBox="0 0 1024.000000 1024.000000"
 preserveAspectRatio="xMidYMid meet">
<metadata>
Created by potrace 1.14, written by Peter Selinger 2001-2017
</metadata>
<g transform="translate(0.000000,1024.000000) scale(0.100000,-0.100000)"
fill="#000000" stroke="none">
<path d="M5408 9763 c29 -2 74 -2 100 0 26 2 2 3 -53 3 -55 0 -76 -1 -47 -3z"/>
<path d="M4868 9745 c-3 -3 -37 -10 -74 -15 -68 -8 -108 -17 -189 -40 -22 -6
-60 -15 -85 -21 -97 -19 -326 -151 -481 -277 -175 -141 -376 -390 -459 -569
-86 -182 -222 -593 -197 -593 3 0 13 7 21 16 11 10 16 11 16 3 0 -29 47 45
102 160 68 142 164 313 216 386 121 169 152 206 307 359 206 204 235 226 291
226 17 0 46 17 83 49 128 111 287 194 521 272 l145 48 -106 1 c-58 0 -108 -2
-111 -5z"/>
<path d="M5707 9743 c18 -2 50 -2 70 0 21 2 7 4 -32 4 -38 0 -55 -2 -38 -4z"/>
<path d="M5100 9619 c-209 -27 -486 -141 -628 -257 l-32 -27 20 -40 c11 -21
20 -53 20 -70 0 -38 -31 -101 -49 -97 -7 1 -10 -2 -6 -7 9 -16 -50 -41 -97
-41 -46 0 -113 33 -103 50 4 6 3 10 -2 9 -4 -1 -16 1 -26 6 -14 6 -34 -9 -95
-71 -237 -242 -400 -548 -447 -836 -19 -120 -19 -347 0 -468 72 -440 400 -872
824 -1085 162 -81 452 -165 571 -165 24 0 39 -4 35 -10 -3 -5 -11 -7 -18 -5
-7 2 -43 7 -82 10 -38 3 -92 10 -120 15 -49 10 -62 13 -118 26 -21 5 -27 3
-25 -7 2 -8 -3 -13 -10 -11 -8 1 -11 -2 -7 -8 5 -8 -4 -10 -26 -8 -29 4 -34 8
-35 31 -1 23 2 26 25 22 14 -3 19 -2 11 1 -8 4 -23 11 -34 16 -12 7 -16 7 -12
0 3 -6 -8 -15 -24 -21 -18 -6 -28 -6 -25 -1 4 6 -6 7 -25 4 -25 -6 -29 -4 -24
10 3 9 2 16 -2 16 -5 0 -19 3 -31 6 -17 5 -23 2 -23 -10 0 -9 8 -16 20 -16 11
0 20 -4 20 -10 0 -5 9 -10 20 -10 11 0 20 -4 20 -10 0 -13 -36 -13 -61 0 -16
9 -19 7 -19 -8 0 -13 12 -23 40 -32 22 -7 40 -17 40 -22 0 -4 18 -8 40 -8 l40
0 0 -45 c0 -44 -1 -45 -32 -47 -143 -8 -324 10 -453 44 -73 19 -350 124 -393
148 -33 19 -198 82 -291 111 -88 27 -118 34 -281 61 -104 17 -461 4 -605 -21
-143 -26 -337 -90 -419 -138 -141 -82 -208 -147 -368 -358 -147 -194 -207
-240 -384 -293 -94 -29 -127 -53 -206 -152 -115 -145 -183 -194 -337 -240 -56
-17 -89 -21 -142 -18 -72 6 -99 19 -99 48 0 38 50 69 179 109 70 22 148 54
174 72 77 51 171 171 307 390 25 40 70 99 101 130 55 55 75 67 263 153 60 28
98 56 165 119 47 45 104 97 127 114 110 86 351 174 599 219 68 13 248 41 280
44 6 1 1 5 -10 10 l-20 9 20 0 c34 2 51 17 37 34 -7 8 -15 42 -18 76 -5 41
-11 61 -20 61 -10 0 -14 -16 -14 -62 0 -61 0 -61 -19 -40 -10 12 -24 22 -31
22 -8 0 -10 7 -5 18 4 9 8 26 11 36 2 11 9 23 15 27 8 5 8 8 0 13 -6 4 -11 23
-11 42 0 19 4 33 9 30 5 -4 6 9 1 29 -5 20 -4 33 1 29 5 -3 10 10 11 28 0 18
2 44 3 58 11 120 8 121 -20 11 -52 -201 -113 -284 -263 -362 -42 -22 -225 -80
-361 -114 -137 -34 -198 -67 -306 -162 -115 -101 -154 -127 -295 -195 -141
-67 -183 -106 -304 -287 -100 -151 -161 -210 -272 -263 -83 -40 -306 -94 -338
-82 -9 3 -19 18 -22 33 -16 75 -21 78 -28 19 -4 -32 -11 -58 -16 -58 -8 0 -14
-70 -26 -270 -2 -47 -9 -94 -14 -105 -5 -11 -11 -75 -12 -141 l-3 -122 20 36
c42 74 71 81 250 67 92 -7 108 -6 190 18 50 14 108 31 130 37 22 6 126 15 230
21 105 6 211 12 236 14 43 3 46 1 42 -19 -3 -13 2 -28 11 -35 22 -18 20 -31
-4 -31 -18 0 -18 -1 3 -24 12 -12 36 -40 54 -60 17 -21 40 -39 50 -40 11 -2
19 -13 21 -27 4 -38 -74 -118 -195 -199 -119 -79 -180 -128 -262 -204 -73 -69
-83 -78 -118 -103 -37 -26 -133 -68 -222 -95 -103 -32 -204 -84 -260 -134 -38
-34 -56 -44 -71 -39 -11 4 -20 2 -20 -4 0 -19 -20 -12 -21 7 0 14 -2 14 -9 -3
-12 -28 -12 -105 0 -105 6 0 10 -30 10 -69 0 -39 5 -73 10 -76 6 -3 10 -26 10
-50 0 -24 4 -46 9 -49 5 -3 11 -20 14 -38 3 -18 11 -51 17 -73 7 -22 14 -58
17 -80 3 -22 9 -44 14 -49 5 -6 9 -25 9 -43 0 -18 4 -41 9 -51 5 -9 14 -29 20
-44 6 -16 15 -38 20 -50 5 -13 15 -41 22 -63 15 -49 21 -67 48 -127 12 -26 21
-54 21 -62 0 -8 4 -18 10 -21 5 -3 10 -17 10 -31 0 -13 5 -24 10 -24 6 0 10
-9 10 -20 0 -11 5 -20 10 -20 6 0 10 -6 10 -14 0 -8 8 -31 19 -53 10 -21 34
-69 52 -108 19 -38 37 -71 41 -73 5 -2 8 -10 8 -17 0 -18 75 -158 121 -227 22
-31 39 -60 39 -63 0 -10 63 -100 72 -103 4 -2 8 -10 8 -18 0 -9 5 -12 10 -9 5
3 10 -1 10 -10 0 -22 131 -214 153 -223 4 -2 22 -25 39 -50 62 -91 161 -209
316 -377 286 -310 499 -491 862 -732 319 -212 711 -402 1140 -553 102 -36 344
-100 490 -129 305 -61 454 -80 735 -89 333 -12 585 1 870 44 118 18 171 44
344 168 353 253 572 544 715 950 61 172 122 394 132 482 4 30 11 57 16 60 10
6 1 24 -13 24 -5 0 -9 -8 -10 -17 0 -12 -2 -13 -6 -5 -8 20 -66 -91 -195 -373
-142 -309 -219 -443 -348 -607 l-44 -57 -28 31 c-30 34 -35 49 -15 46 6 -2 11
3 9 10 -1 7 37 72 85 144 159 242 242 433 279 648 23 137 16 470 -14 590 -78
317 -238 597 -482 839 -79 78 -71 78 19 -1 30 -27 59 -48 65 -48 6 0 5 5 -2
12 -17 17 -15 33 3 18 9 -7 14 -24 13 -39 -2 -16 2 -25 10 -24 6 2 12 -2 12
-9 0 -6 2 -9 5 -7 5 6 -23 90 -37 106 -6 7 -7 13 -3 13 4 0 15 -10 24 -22 22
-26 56 -18 48 12 -3 11 3 26 13 35 20 18 41 13 36 -8 -1 -7 -1 -9 1 -5 2 3 18
2 35 -4 22 -8 32 -8 37 1 5 7 15 3 29 -14 12 -14 28 -25 36 -25 23 0 209 -193
272 -281 32 -46 64 -90 70 -96 15 -15 34 -17 34 -3 0 6 18 10 40 10 33 0 40
-3 40 -19 0 -11 5 -23 10 -26 6 -3 10 2 10 12 0 22 18 43 36 43 7 0 14 -18 16
-41 3 -35 2 -38 -10 -22 -12 16 -12 15 -7 -12 4 -16 11 -54 16 -84 5 -29 16
-66 24 -82 8 -15 15 -35 15 -44 0 -55 101 -121 166 -109 42 8 100 42 108 64 3
8 11 23 18 34 11 15 11 19 0 23 -8 3 -10 9 -3 16 5 7 16 37 25 68 14 46 15 65
5 100 -6 24 -11 52 -12 62 -1 9 -7 17 -14 17 -7 0 -13 5 -13 10 0 6 -15 20
-32 31 -18 12 -25 18 -14 15 14 -5 17 -2 12 9 -3 9 -2 13 4 10 6 -3 10 -11 10
-16 0 -18 28 -39 44 -33 10 4 16 1 16 -7 0 -8 5 -6 13 6 12 15 22 17 68 11 30
-4 62 -8 72 -9 9 -1 17 -6 17 -11 0 -6 7 1 17 14 9 14 29 39 46 57 18 19 26
36 22 44 -5 7 -4 10 2 6 6 -4 41 22 77 56 97 89 134 107 226 107 94 0 248 25
318 50 98 37 135 62 226 154 140 141 190 175 311 210 33 10 78 30 99 44 36 24
111 105 160 172 12 16 20 21 23 13 7 -20 19 -16 106 35 45 27 109 61 142 76
58 26 126 68 153 94 37 34 92 -5 92 -66 0 -64 -44 -105 -187 -173 -133 -62
-296 -153 -313 -174 -12 -14 5 -19 105 -30 45 -5 82 -2 148 14 49 12 108 21
132 21 37 0 47 -5 64 -29 12 -16 21 -40 21 -53 2 -61 95 279 135 489 96 511
104 1246 19 1738 -108 631 -334 1203 -675 1712 -153 227 -269 379 -414 538
-40 44 -85 96 -101 115 -114 141 -498 484 -693 620 -35 25 -84 60 -110 78
-104 74 -388 236 -573 326 -108 53 -202 96 -208 96 -5 0 -18 4 -28 9 -9 5 -33
16 -52 24 -19 8 -61 27 -93 41 -32 14 -62 26 -67 26 -5 0 -39 14 -76 31 -116
53 -116 37 -1 -83 79 -84 117 -115 170 -142 61 -31 66 -36 48 -45 -26 -14 -52
-15 -31 -1 11 7 11 10 2 10 -7 0 -10 5 -7 10 3 6 -1 10 -9 10 -20 0 -30 -17
-14 -23 7 -3 4 -6 -8 -6 -11 -1 -26 5 -34 12 -12 10 -12 9 -1 -5 7 -10 23 -18
35 -18 21 -1 80 -29 60 -30 -12 0 -159 50 -219 74 -74 31 -89 41 -175 114
-168 144 -276 177 -555 169 -168 -5 -483 -43 -655 -78 -123 -26 -254 -112
-286 -187 -8 -19 -12 -37 -9 -40 3 -3 37 2 75 12 125 33 195 19 345 -69 74
-43 105 -44 263 -9 99 22 123 32 154 60 33 30 90 54 128 54 35 0 93 -23 123
-49 29 -26 41 -29 137 -34 58 -4 151 -18 207 -31 134 -33 342 -114 328 -127
-2 -3 8 -5 22 -4 14 0 28 -6 30 -12 3 -7 -3 -13 -12 -13 -9 0 -13 -4 -10 -10
3 -5 1 -10 -4 -10 -6 0 -11 -9 -11 -20 0 -11 -5 -20 -10 -20 -6 0 -10 -8 -8
-17 2 -14 -5 -19 -39 -21 -36 -3 -49 3 -100 42 -73 56 -139 91 -226 122 -71
24 -223 52 -233 42 -3 -3 -6 -21 -6 -39 -4 -120 -130 -207 -236 -163 -35 14
-37 36 -2 27 23 -6 39 22 21 40 -8 8 -11 7 -11 -6 0 -9 -7 -17 -16 -17 -11 0
-14 5 -10 16 5 13 2 15 -14 11 -11 -3 -23 -1 -26 4 -3 5 -9 7 -13 4 -14 -8
-48 29 -60 68 -7 20 -15 37 -17 37 -3 0 -50 -11 -104 -25 -183 -45 -332 -116
-545 -258 -378 -253 -533 -427 -607 -682 -20 -70 -23 -100 -22 -245 1 -147 4
-174 27 -252 l26 -87 -22 -53 -22 -53 -7 35 c-4 19 -16 73 -27 120 -27 112
-54 288 -48 311 7 25 -20 59 -47 59 -59 0 -116 -40 -203 -144 -17 -21 -36 -36
-40 -33 -5 3 -10 -4 -10 -16 -2 -17 0 -19 7 -7 13 21 12 6 -2 -25 -16 -36 -31
-31 -24 8 l6 32 -14 -30 c-19 -39 -20 -21 -1 30 7 22 18 39 24 38 6 -2 8 4 5
12 -4 8 -1 15 5 15 6 0 11 6 11 13 0 14 55 71 63 65 3 -1 9 1 14 6 5 5 3 6 -4
2 -7 -4 -13 -2 -13 3 0 6 7 11 16 11 9 0 12 5 8 12 -5 8 -2 9 9 5 9 -3 19 -1
23 5 5 7 2 8 -7 3 -12 -8 -12 -6 0 8 7 9 17 14 22 11 5 -3 9 -1 9 5 0 6 33 32
73 58 l72 48 41 115 c49 140 72 185 139 275 112 148 372 347 628 480 61 32 97
56 97 66 0 20 -44 66 -83 85 -65 34 -195 24 -408 -30 -201 -51 -280 -111 -458
-349 -70 -95 -152 -194 -180 -221 -50 -46 -52 -50 -46 -86 8 -48 -12 -130 -27
-109 -7 11 -8 9 -4 -7 4 -14 -3 -29 -27 -52 -30 -29 -41 -33 -103 -37 -66 -5
-68 -5 -39 9 29 15 28 18 -5 20 -8 1 -14 9 -12 19 2 9 -3 17 -11 17 -8 0 -26
12 -40 26 -22 21 -25 22 -20 6 2 -11 -1 -23 -8 -27 -8 -5 -10 -4 -5 4 4 6 4
21 1 32 -6 17 -9 19 -16 8 -6 -10 -8 -7 -7 11 2 16 -2 24 -9 22 -29 -5 -4 93
34 138 14 17 38 37 54 45 41 22 128 19 164 -5 17 -11 33 -20 37 -20 13 0 156
169 215 254 141 202 332 405 495 526 162 121 321 206 436 231 28 7 52 16 52
21 0 10 -162 8 -250 -3z m2093 -526 c46 -19 113 -93 127 -142 12 -42 13 -124
3 -135 -8 -7 -9 -11 -12 -38 -2 -21 -73 -95 -106 -111 -44 -22 -105 -32 -105
-18 0 7 6 11 13 9 16 -4 77 22 77 33 0 5 -17 9 -37 8 -32 -1 -34 -2 -13 -8 15
-4 20 -10 13 -14 -6 -4 -23 -3 -38 3 -22 8 -25 13 -16 24 9 10 28 13 69 10 43
-3 53 -2 42 7 -12 9 -13 11 -1 16 11 4 11 7 0 14 -7 4 -20 4 -29 -1 -29 -15
-128 -4 -179 22 -36 18 -47 20 -43 9 5 -14 4 -14 -10 -1 -9 8 -14 18 -12 21 2
3 -10 15 -26 27 -26 20 -29 20 -33 4 -3 -9 -5 15 -6 53 -1 55 4 78 20 105 70
117 175 152 302 103z m-1263 -73 c0 -5 -5 -10 -11 -10 -5 0 -7 5 -4 10 3 6 8
10 11 10 2 0 4 -4 4 -10z m-10 -36 c0 -2 -9 0 -20 6 -11 6 -20 13 -20 16 0 2
9 0 20 -6 11 -6 20 -13 20 -16z m146 -151 c9 -34 -18 -58 -47 -40 -26 16 -31
34 -13 52 24 24 53 19 60 -12z m-11 -63 c75 -2 322 -67 480 -127 127 -48 345
-154 344 -167 -3 -25 2 -37 13 -30 6 4 8 3 4 -4 -3 -6 -14 -9 -24 -7 -30 6
-142 57 -142 65 0 4 -12 10 -27 13 -16 3 -87 26 -159 51 -145 50 -346 97 -497
116 -141 18 -382 8 -468 -19 -108 -34 -129 -81 -47 -100 121 -29 214 -67 271
-111 90 -67 94 -72 79 -77 -6 -3 -9 -9 -6 -15 4 -7 9 -6 14 2 5 8 17 4 43 -13
41 -28 91 -37 387 -67 244 -25 423 -57 670 -120 103 -26 116 -26 124 5 4 14
11 25 16 25 6 0 10 8 10 18 0 14 2 15 10 2 5 -8 7 -23 4 -34 -4 -11 -2 -16 4
-12 6 3 13 2 16 -3 9 -14 -22 -34 -40 -27 -9 4 -22 2 -29 -4 -11 -9 -40 -6
-125 15 l-25 6 25 -11 c16 -8 21 -13 13 -18 -7 -5 19 -7 57 -7 39 0 70 -3 70
-7 0 -4 -12 -8 -27 -9 -22 -1 -18 -4 21 -16 27 -8 44 -18 38 -22 -7 -4 4 -7
23 -7 19 0 35 4 35 8 0 4 -3 7 -7 6 -20 -5 -53 15 -53 33 0 14 7 19 25 19 14
0 25 -5 25 -12 0 -15 40 -98 47 -98 3 0 3 10 0 21 -7 28 5 13 21 -24 9 -20 9
-26 1 -21 -8 4 -9 -1 -4 -17 7 -23 7 -23 -8 -4 -10 13 -12 24 -6 31 6 8 2 10
-16 8 -17 -1 -30 4 -38 17 -8 12 -23 19 -45 19 -19 0 -42 8 -54 20 -13 11 -30
18 -42 15 -41 -9 -101 -11 -141 -4 l-40 6 40 2 c22 1 46 5 54 10 14 9 -41 19
-126 23 -41 2 -48 7 -44 37 2 7 -2 10 -8 6 -6 -3 -11 -13 -11 -21 0 -8 -5 -14
-12 -14 -6 0 -20 -7 -29 -16 -17 -15 -20 -15 -44 0 -19 12 -30 14 -43 7 -14
-9 -13 -10 10 -11 15 0 29 -4 32 -9 3 -5 25 -9 48 -9 24 -1 44 -6 46 -11 2 -6
8 -11 13 -11 6 0 8 4 5 8 -2 4 4 8 15 8 24 0 25 -16 0 -23 -12 -3 -18 -14 -18
-29 0 -14 2 -23 4 -20 14 14 183 -223 183 -257 0 -6 -21 22 -46 63 -47 75 -82
117 -96 113 -4 -2 -4 5 -1 15 6 15 5 16 -12 2 -16 -14 -17 -13 -11 6 4 14 2
23 -8 27 -10 4 -12 0 -8 -16 l5 -21 -23 22 c-13 12 -26 22 -30 22 -3 0 -7 12
-8 27 -3 34 -22 47 -38 25 -10 -14 -16 -14 -39 -4 -18 9 -30 9 -34 3 -4 -6
-33 6 -71 28 -161 93 -424 162 -503 132 -19 -7 -27 -7 -27 0 0 6 -5 7 -10 4
-6 -3 -8 -25 -5 -48 4 -42 4 -42 -9 8 -8 28 -15 44 -15 37 -2 -26 -21 0 -21
29 0 21 -6 32 -22 39 -13 5 -19 9 -14 9 5 1 -3 12 -17 25 -17 16 -25 31 -21
41 5 13 2 15 -20 9 -20 -5 -26 -2 -26 9 0 9 -5 19 -12 23 -8 5 -9 1 -4 -12 6
-15 5 -16 -5 -7 -10 10 -9 15 1 28 14 17 0 21 -17 4 -8 -8 -13 -7 -18 2 -5 7
-4 10 1 7 5 -3 15 1 23 9 12 13 10 14 -20 9 -19 -3 -28 -3 -21 0 20 9 14 23
-8 17 -26 -7 -82 16 -73 30 3 5 1 7 -5 4 -5 -4 -31 2 -56 13 -61 26 -203 44
-293 37 -52 -4 -73 -2 -73 6 0 7 -4 6 -10 -3 -9 -13 -11 -13 -19 0 -11 16 4
41 22 37 6 -1 11 3 12 10 0 23 19 32 34 16 12 -13 11 -14 -10 -9 -19 6 -21 5
-7 -4 9 -5 24 -7 33 -4 14 6 14 8 -2 26 -16 18 -16 19 2 12 12 -5 16 -4 11 4
-4 7 10 22 34 38 35 23 42 25 57 13 16 -13 17 -12 5 3 -12 15 -8 20 35 42 113
57 219 75 403 70 74 -2 153 -4 175 -4z m855 -10 c6 -11 8 -20 6 -20 -3 0 -10
9 -16 20 -6 11 -8 20 -6 20 3 0 10 -9 16 -20z m45 -51 c11 -17 -1 -21 -15 -4
-8 9 -8 15 -2 15 6 0 14 -5 17 -11z m66 -40 c9 0 10 -2 2 -5 -15 -7 -53 13
-53 28 0 6 8 4 18 -5 10 -10 25 -17 33 -18z m14 13 c-3 -3 -11 0 -18 7 -9 10
-8 11 6 5 10 -3 15 -9 12 -12z m394 -148 c17 -25 26 -42 19 -39 -7 4 -1 -3 14
-16 25 -23 69 -74 196 -231 35 -43 60 -83 57 -88 -4 -6 -1 -9 6 -8 13 3 179
-234 179 -255 0 -9 -2 -9 -8 0 -4 6 -16 11 -27 10 -14 -1 -21 5 -23 21 -2 13
-8 20 -14 16 -6 -4 -17 2 -25 12 -13 17 -14 17 -8 -11 5 -24 1 -20 -22 21 -16
28 -42 67 -57 87 -16 21 -25 41 -20 48 4 7 3 9 -3 6 -15 -9 -57 39 -47 55 4 7
4 10 -1 6 -13 -12 -85 74 -79 95 3 9 0 17 -6 17 -6 0 -8 -4 -5 -10 15 -25 -6
-6 -39 35 -21 25 -34 45 -29 45 4 0 18 -15 31 -33 12 -17 22 -27 22 -21 0 7
-7 17 -15 24 -9 7 -14 18 -12 24 6 15 -20 39 -28 26 -8 -13 -19 -6 -45 31 -12
16 -16 28 -10 27 7 -2 14 2 17 8 2 7 -6 11 -18 10 -23 -1 -68 48 -55 61 4 4
11 1 16 -7 8 -13 10 -12 10 3 0 9 -4 17 -10 17 -5 0 -10 7 -10 15 0 8 5 15 11
15 6 0 9 7 5 15 -10 27 2 16 33 -31z m521 -29 c64 -33 90 -103 48 -127 -29
-16 -166 -16 -195 0 -48 27 -34 83 30 122 38 24 78 25 117 5z m-1030 -47 c0
-7 -5 -6 -13 1 -8 6 -18 7 -22 3 -5 -4 -5 -2 -1 5 8 14 36 6 36 -9z m-1581
-23 c149 -35 283 -160 327 -303 16 -55 19 -116 4 -92 -7 12 -10 8 -10 -15 -1
-92 -58 -205 -139 -276 -57 -51 -100 -73 -178 -93 -147 -38 -286 -4 -400 98
-63 57 -94 109 -123 206 -18 59 -24 71 -31 55 -18 -45 -8 45 12 111 28 92 56
139 121 201 114 107 260 145 417 108z m1635 -14 c14 -15 15 -21 4 -27 -7 -4
-10 -3 -5 1 4 5 0 17 -10 27 -9 10 -14 18 -11 18 3 0 13 -9 22 -19z m166 -163
c0 -4 -31 25 -70 63 -38 39 -70 74 -70 77 0 4 32 -25 70 -63 39 -38 70 -73 70
-77z m-3223 60 c-3 -7 -5 -2 -5 12 0 14 2 19 5 13 2 -7 2 -19 0 -25z m3491 -2
c36 -46 13 -77 -48 -66 -53 10 -65 21 -50 49 19 37 76 47 98 17z m-3448 -16
c0 -5 -2 -10 -4 -10 -3 0 -8 5 -11 10 -3 6 -1 10 4 10 6 0 11 -4 11 -10z
m2008 -85 c-3 -3 -9 2 -12 12 -6 14 -5 15 5 6 7 -7 10 -15 7 -18z m1232 -50
c0 -11 -14 7 -31 40 -7 13 -3 12 10 -5 11 -14 21 -29 21 -35z m-3207 -167 c3
-73 4 -161 2 -196 -3 -40 -1 -61 5 -57 15 9 12 -8 -4 -31 -14 -18 -15 -18 -21
8 -4 15 -4 32 1 39 4 7 3 9 -3 6 -15 -10 -22 37 -29 204 -5 109 -4 151 6 169
23 44 36 1 43 -142z m2017 132 c0 -5 -2 -10 -4 -10 -3 0 -8 5 -11 10 -3 6 -1
10 4 10 6 0 11 -4 11 -10z m1224 -156 c3 -8 2 -12 -4 -9 -6 3 -10 10 -10 16 0
14 7 11 14 -7z m-906 -96 c9 -13 -6 -3 -34 21 -70 63 -74 68 -25 33 24 -17 50
-41 59 -54z m1012 27 c0 -11 -14 7 -31 40 -7 13 -3 12 10 -5 11 -14 21 -29 21
-35z m50 -40 c19 -19 32 -35 29 -35 -3 0 -20 16 -39 35 -19 19 -32 35 -29 35
3 0 20 -16 39 -35z m65 -55 c3 -6 -1 -7 -9 -4 -18 7 -21 14 -7 14 6 0 13 -4
16 -10z m-3308 -57 c2 -5 -1 -27 -6 -49 l-9 -39 -1 38 c-1 35 -13 48 -26 27
-3 -5 -1 -10 4 -10 7 0 11 -30 11 -79 0 -84 6 -115 21 -105 5 3 9 -2 9 -10 0
-10 -6 -13 -17 -9 -13 5 -15 2 -10 -11 5 -12 3 -16 -5 -14 -8 3 -12 19 -10 41
4 45 -7 99 -18 92 -5 -3 -11 3 -13 12 -4 15 -5 15 -6 -2 0 -12 3 -25 8 -30 12
-12 27 -93 16 -83 -5 5 -10 22 -12 40 -2 18 -8 37 -13 42 -13 13 -13 53 0 61
6 3 10 13 10 21 0 33 28 82 46 80 10 -2 19 -7 21 -13z m-77 -69 c0 0 -8 -11
-19 -23 -16 -19 -20 -19 -25 -5 -8 21 -2 30 23 30 12 0 21 -1 21 -2z m4220
-46 c10 -6 7 -7 -10 -2 -14 3 -32 11 -40 16 -10 6 -7 7 10 2 14 -3 32 -11 40
-16z m-4272 -13 c-3 -3 -9 2 -12 12 -6 14 -5 15 5 6 7 -7 10 -15 7 -18z m43
-58 c-6 -6 -9 -2 -8 9 1 11 -3 18 -9 17 -7 -1 -10 6 -7 18 5 18 7 17 20 -7 8
-17 10 -31 4 -37z m1915 41 c22 -10 49 -56 39 -66 -3 -3 -5 0 -5 6 0 7 -12 9
-34 5 -18 -3 -43 0 -56 7 -18 10 -24 9 -31 -1 -7 -11 -9 -10 -9 5 0 16 -2 17
-17 5 -14 -12 -16 -12 -11 1 7 23 67 60 86 54 9 -3 27 -10 38 -16z m1134 -23
c33 -17 64 -58 74 -97 8 -34 -8 -108 -26 -119 -7 -5 -9 -9 -4 -9 17 0 -17 -30
-34 -30 -10 0 -20 -7 -24 -15 -3 -9 -18 -15 -38 -14 -31 1 -31 2 -8 8 18 5 24
14 23 29 -2 18 2 22 27 22 19 0 28 4 25 13 -4 8 -23 11 -60 9 -57 -4 -145 22
-145 43 0 6 -5 3 -10 -5 -7 -11 -10 -5 -10 24 0 51 35 122 68 141 35 19 106
19 142 0z m-2496 -31 c3 -8 2 -12 -4 -9 -6 3 -10 -1 -10 -9 0 -9 4 -16 9 -16
13 0 7 -53 -6 -58 -7 -2 -13 1 -13 6 0 6 -7 18 -16 26 -15 16 -11 41 6 31 4
-3 6 5 2 17 -3 14 -2 19 6 14 7 -4 12 -2 12 3 0 16 7 13 14 -5z m3404 -31 c37
-27 72 -79 72 -104 0 -24 -23 -49 -50 -55 -14 -3 -36 -7 -50 -10 -78 -17 -250
1 -250 26 0 6 -7 10 -15 10 -19 0 -19 33 -1 69 19 36 80 89 109 96 75 16 136
6 185 -32z m-3486 -75 c-6 -6 -7 0 -4 19 5 21 7 23 10 9 2 -10 0 -22 -6 -28z
m-412 -21 c0 -16 -18 3 -23 25 -6 22 -5 22 8 4 8 -11 15 -24 15 -29z m536 27
c-9 -8 -13 -20 -10 -26 4 -6 2 -8 -4 -5 -14 10 -3 47 15 47 12 0 12 -3 -1 -16z
m2388 -108 c-3 -8 2 -16 13 -19 12 -3 10 -5 -7 -5 -14 0 -36 -3 -50 -6 -21 -5
-20 -4 5 8 17 9 23 16 15 16 -12 1 2 11 27 19 1 1 0 -5 -3 -13z m-1594 -7 c12
-9 12 -10 -3 -5 -10 3 -28 1 -40 -6 -20 -10 -21 -10 -8 5 16 20 30 21 51 6z
m1540 -4 c0 -7 -30 -13 -34 -7 -3 4 4 9 15 9 10 1 19 0 19 -2z m-400 -95 c33
-33 24 -78 -11 -59 -11 5 -19 6 -18 2 4 -24 -3 -25 -14 -3 -9 18 -21 25 -40
24 -31 0 -33 4 -11 34 19 28 67 29 94 2z m1815 -300 c93 -45 111 -127 30 -142
-118 -21 -225 -5 -242 37 -9 25 30 77 76 102 54 28 82 29 136 3z m-3113 -40
c29 -22 46 -65 22 -56 -9 3 -14 -1 -15 -12 0 -9 -3 -12 -5 -7 -2 6 -19 9 -38
7 -19 -2 -43 1 -55 7 -16 9 -21 9 -22 -1 0 -10 -2 -10 -6 0 -2 6 -9 10 -14 6
-23 -14 -6 37 19 55 35 26 82 27 114 1z m3558 -135 c34 -18 51 -62 29 -76 -8
-5 -42 -9 -76 -9 -52 0 -64 3 -73 20 -9 17 -6 25 19 50 33 34 58 37 101 15z
m-4110 -249 c0 -3 -4 -8 -10 -11 -5 -3 -10 -1 -10 4 0 6 5 11 10 11 6 0 10 -2
10 -4z m4426 -16 c44 -22 69 -50 79 -93 9 -33 -20 -53 -96 -67 -43 -9 -67 -7
-119 5 -36 9 -73 22 -83 30 -16 12 -17 16 -4 47 37 86 134 120 223 78z m-3571
-5 c188 -40 286 -137 447 -445 450 -859 764 -1483 783 -1557 73 -280 -118
-526 -395 -510 -91 5 -160 32 -248 99 l-63 48 -765 0 c-523 0 -764 -3 -764
-10 0 -34 72 -144 137 -209 l74 -74 -78 6 c-97 6 -171 34 -260 96 -79 56 -112
95 -153 184 -59 126 -51 257 32 492 59 170 93 305 109 445 14 120 15 123 260
580 75 140 171 320 214 400 138 258 222 366 329 422 84 43 226 57 341 33z
m-2531 -15 c447 -55 801 -250 1038 -570 102 -139 179 -299 225 -470 34 -130
44 -388 19 -536 -36 -214 -151 -481 -272 -632 -257 -321 -624 -498 -1124 -542
-63 -5 -274 -10 -467 -10 l-353 0 0 1389 0 1389 423 -4 c232 -1 462 -8 511
-14z m1816 11 c0 -10 -149 -26 -157 -17 -4 3 13 6 36 6 23 0 40 3 38 8 -3 4
15 8 39 9 24 1 44 -2 44 -6z m3588 2 l122 -6 0 -165 c0 -206 -13 -261 -78
-333 -84 -94 -154 -110 -461 -109 l-195 2 0 -1079 -1 -1078 -332 -3 -333 -2
-2 1081 -3 1081 -285 1 c-285 2 -285 2 -340 28 -72 34 -116 78 -147 147 -24
51 -26 69 -31 239 -4 152 -2 187 9 194 16 10 1888 12 2077 2z m-3443 -43 c-11
-5 -29 -9 -40 -9 l-20 0 20 9 c11 5 29 9 40 9 l20 0 -20 -9z m-85 -20 c-20
-13 -33 -13 -25 0 3 6 14 10 23 10 15 0 15 -2 2 -10z m-100 -20 c-8 -5 -22 -9
-30 -9 -10 0 -8 3 5 9 27 12 43 12 25 0z m-65 -10 c-28 -12 -55 -12 -55 0 0 6
17 10 38 9 30 0 33 -2 17 -9z m-3185 -940 c-8 -6 -22 -10 -30 -10 -8 0 -4 6
10 13 27 15 44 12 20 -3z m184 -196 c3 -8 2 -12 -4 -9 -6 3 -10 10 -10 16 0
14 7 11 14 -7z m7830 -65 c-42 -44 -128 -92 -210 -117 -85 -26 -126 -46 -116
-57 4 -5 1 -5 -6 -1 -12 7 -66 -28 -68 -45 -1 -5 -2 -17 -3 -26 -2 -17 -3 -16
-10 1 -6 16 -10 14 -31 -18 -25 -35 -40 -46 -40 -26 0 6 4 10 9 10 5 0 13 9
16 20 4 11 32 42 63 68 46 38 82 55 184 91 96 33 140 55 180 87 63 51 72 54
32 13z m-834 -75 c74 -40 129 -119 116 -168 -9 -38 -96 -67 -223 -73 -89 -5
-111 -3 -170 17 -85 29 -95 38 -83 81 22 77 78 132 167 165 54 20 132 11 193
-22z m400 -218 c0 -2 -8 -10 -17 -17 -16 -13 -17 -12 -4 4 13 16 21 21 21 13z
m-53 -48 c-6 -41 8 -69 29 -61 12 4 11 -2 -5 -28 -22 -36 -28 -64 -11 -54 6 4
5 -6 -2 -22 -18 -41 -30 -55 -44 -49 -16 6 -28 -10 -14 -19 5 -3 10 -13 10
-21 0 -9 -5 -12 -11 -8 -7 4 -9 0 -5 -13 10 -32 -77 -153 -152 -211 -52 -41
-83 -53 -200 -82 -131 -32 -244 -111 -315 -219 -125 -193 -156 -229 -250 -293
-59 -40 -133 -72 -147 -63 -11 7 -1 46 18 67 8 10 19 15 23 12 5 -3 6 3 2 12
-5 13 -3 16 9 11 10 -3 19 0 22 9 4 10 2 13 -7 8 -6 -4 11 17 39 47 84 89 90
97 124 167 38 77 67 157 81 222 14 67 38 300 32 316 -3 8 0 14 6 14 6 0 11 -4
11 -9 0 -4 18 -28 40 -53 21 -25 37 -48 34 -51 -3 -3 -1 -8 5 -12 6 -3 11 -1
11 5 0 8 6 8 20 0 11 -6 18 -16 14 -22 -4 -5 0 -14 7 -19 24 -15 34 -10 13 7
-21 17 -28 18 66 -6 51 -14 98 -12 160 5 30 9 60 17 65 18 6 1 15 6 22 10 6 4
17 6 25 4 7 -2 10 -2 5 1 -4 2 10 15 30 29 21 14 50 36 65 50 29 28 86 138
112 217 23 67 35 88 48 80 7 -4 8 -3 4 4 -4 7 -4 17 -1 22 12 19 17 10 12 -22z
m508 -9 c33 -7 45 -46 40 -134 -11 -165 -58 -288 -145 -376 -45 -46 -80 -68
-185 -118 -72 -33 -150 -72 -175 -87 -97 -55 -156 -78 -212 -82 -84 -6 -238
31 -216 53 1 2 47 8 101 14 125 14 181 34 289 104 48 31 131 77 184 103 117
55 184 120 238 227 39 79 62 206 51 281 -3 23 -3 36 2 30 4 -7 17 -13 28 -15z
m-459 -91 c-9 -12 -16 -19 -16 -15 0 11 24 47 28 42 2 -2 -3 -14 -12 -27z
m-8546 -353 c0 -8 -7 -15 -16 -15 -14 0 -14 3 -4 15 7 8 14 15 16 15 2 0 4 -7
4 -15z m543 -607 c24 -28 21 -55 -8 -83 -29 -30 -68 -32 -95 -5 -27 27 -25 66
6 96 29 30 67 27 97 -8z m528 -30 c40 -45 12 -108 -46 -106 -19 1 -35 5 -35
10 0 5 -4 6 -10 3 -6 -4 -7 1 -3 11 4 12 3 15 -5 10 -7 -4 -12 -3 -12 3 0 5
-2 16 -5 23 -3 8 4 26 15 41 27 34 74 37 101 5z m6527 -50 c21 -21 14 -57 -12
-64 -33 -8 -46 2 -46 36 0 37 33 53 58 28z m-6095 -186 c63 -42 86 -106 61
-177 -28 -83 -96 -124 -171 -103 -21 5 -42 14 -48 20 -7 6 -4 7 7 3 21 -8 128
13 128 25 0 5 -4 12 -10 15 -5 3 -10 1 -10 -4 0 -14 -45 -14 -71 -1 -10 6 -19
18 -19 27 0 14 -2 14 -15 -3 -14 -18 -14 -18 -15 4 0 17 -7 24 -30 29 -27 5
-30 9 -30 42 0 45 30 95 72 121 42 25 113 26 151 2z m-652 -99 l-11 -28 5 30
5 30 -16 -25 c-15 -25 -15 -25 -10 15 3 22 6 47 6 55 0 8 8 1 16 -17 13 -25
14 -38 5 -60z m7039 83 c0 -2 -7 -7 -16 -10 -8 -3 -12 -2 -9 4 6 10 25 14 25
6z m-7320 -126 c47 -16 105 -30 129 -30 24 0 42 -2 40 -4 -9 -9 -99 -15 -99
-7 0 14 -54 24 -58 12 -5 -14 -32 -14 -32 -1 0 6 6 10 13 10 8 0 7 4 -3 10 -8
5 -22 10 -30 10 -13 0 -13 -1 0 -11 12 -8 10 -9 -10 -5 -14 3 -33 6 -42 6 -10
0 -18 5 -18 10 0 6 10 10 23 10 18 0 19 2 7 10 -23 15 -12 12 80 -20z m200
-10 c-14 -27 -3 -25 22 3 16 18 19 19 14 4 -3 -10 -6 -22 -6 -26 0 -11 -39
-11 -46 0 -3 5 0 16 6 24 18 21 23 18 10 -5z m80 -5 c0 6 5 2 11 -8 5 -9 8
-21 5 -26 -8 -13 -44 -2 -50 16 -3 8 -1 11 4 8 6 -3 10 2 10 12 0 15 2 16 10
3 5 -8 10 -10 10 -5z m-383 -21 c-3 -3 -12 -4 -19 -1 -8 3 -5 6 6 6 11 1 17
-2 13 -5z m830 -16 c-3 -8 -6 -5 -6 6 -1 11 2 17 5 13 3 -3 4 -12 1 -19z
m-662 -7 c6 -11 -33 -36 -42 -27 -3 3 -3 12 0 21 7 17 33 20 42 6z m-69 -50
c21 3 28 -2 14 -11 -10 -6 -24 -2 -46 15 -17 13 -34 22 -36 20 -3 -3 -5 1 -5
9 0 10 10 7 33 -10 17 -14 36 -24 40 -23z m162 42 c-10 -2 -26 -2 -35 0 -10 3
-2 5 17 5 19 0 27 -2 18 -5z m162 -23 c0 -5 -4 -10 -10 -10 -5 0 -10 5 -10 10
0 6 5 10 10 10 6 0 10 -4 10 -10z m-70 -32 l0 -33 -20 25 c-13 18 -15 27 -7
32 21 14 27 8 27 -24z m180 -69 c89 -91 302 -231 463 -304 61 -28 79 -45 23
-21 -19 8 -37 12 -40 8 -3 -3 -6 -1 -6 5 0 15 -50 34 -74 28 -14 -4 -17 -3 -8
3 10 7 3 13 -27 25 -22 9 -50 26 -62 38 -11 11 -27 18 -35 15 -9 -3 -12 -1 -9
4 3 6 0 10 -8 10 -23 0 -63 24 -99 59 -18 17 -34 27 -36 21 -6 -17 -20 -11
-18 8 1 13 -9 19 -39 23 -22 3 -34 7 -26 8 11 1 11 4 0 18 -12 15 -12 16 4 10
22 -8 22 -5 -5 17 -19 16 -20 16 -15 1 10 -24 -25 -15 -38 10 -5 11 -16 20
-22 21 -7 1 -21 2 -30 3 -25 2 -30 71 -5 71 24 0 48 -40 31 -51 -8 -4 -10 -12
-5 -16 5 -4 11 -2 13 5 3 6 9 10 14 6 15 -9 10 6 -11 33 -11 14 -20 31 -19 37
0 6 10 -2 22 -19 12 -16 42 -51 67 -76z m1809 67 c15 -8 33 -22 41 -31 11 -13
10 -15 -5 -9 -10 4 -16 3 -13 -2 4 -5 -35 -9 -93 -9 -54 0 -99 -3 -99 -7 0 -5
-7 -8 -15 -8 -13 0 -14 4 -5 21 28 52 128 76 189 45z m-2183 -27 c19 -22 19
-22 -3 -10 -24 12 -39 31 -25 31 5 0 17 -10 28 -21z m29 11 c3 -5 2 -10 -4
-10 -5 0 -13 5 -16 10 -3 6 -2 10 4 10 5 0 13 -4 16 -10z m45 -77 c0 -7 -39
17 -46 28 -3 6 5 3 20 -6 14 -10 26 -19 26 -22z m193 20 c-7 -2 -19 -2 -25 0
-7 3 -2 5 12 5 14 0 19 -2 13 -5z m-79 -103 c-6 -6 -10 -3 -10 10 0 13 4 16
10 10 7 -7 7 -13 0 -20z m6063 13 c-9 -9 -20 -13 -24 -9 -4 4 -1 11 7 16 25
16 35 11 17 -7z m-247 -3 c0 -5 -2 -10 -4 -10 -3 0 -8 5 -11 10 -3 6 -1 10 4
10 6 0 11 -4 11 -10z m93 -17 c-7 -2 -19 -2 -25 0 -7 3 -2 5 12 5 14 0 19 -2
13 -5z m-4746 -84 c51 -25 117 -97 133 -145 7 -20 9 -58 6 -87 -3 -29 -7 -62
-7 -74 -1 -13 -5 -20 -11 -17 -11 7 -50 -25 -43 -37 3 -4 -4 -7 -15 -6 -11 1
-20 5 -20 9 0 10 -44 11 -54 1 -9 -10 -177 -3 -197 8 -9 5 -31 10 -48 11 -26
2 -30 6 -25 23 4 16 3 17 -5 5 -10 -13 -11 -13 -11 0 0 9 -3 11 -8 4 -5 -7
-12 -5 -23 6 -23 25 -24 120 -1 172 21 47 87 112 136 134 48 21 142 18 193 -7z
m-912 -129 c-3 -5 -12 -10 -18 -10 -7 0 -6 4 3 10 19 12 23 12 15 0z m3677
-111 c118 -25 226 -104 287 -210 30 -53 38 -75 24 -66 -5 3 -8 -32 -9 -77 0
-58 -7 -97 -22 -136 -20 -50 -25 -56 -53 -58 -17 -1 -40 -7 -50 -13 -14 -7
-19 -6 -19 2 0 9 -20 10 -77 4 -43 -5 -141 -7 -218 -5 -77 3 -167 5 -200 5
-39 0 -64 5 -71 14 -6 8 -16 11 -22 7 -15 -9 -57 84 -66 146 -7 48 12 146 39
199 24 45 100 116 156 145 99 50 198 65 301 43z m-1155 -69 c40 -24 53 -65 29
-88 -25 -25 -137 -24 -165 2 -28 25 -27 28 13 70 39 42 74 46 123 16z m-1583
-135 c-10 -8 -23 -15 -28 -15 -6 0 -1 7 10 15 10 8 23 15 28 15 6 0 1 -7 -10
-15z m-87 -31 c-3 -3 -12 -4 -19 -1 -8 3 -5 6 6 6 11 1 17 -2 13 -5z m3969
-415 c24 -11 53 -35 64 -54 19 -31 20 -38 8 -62 -26 -55 -123 -66 -258 -32
-14 4 -50 37 -50 46 0 17 35 65 60 83 61 43 115 49 176 19z m-3972 -9 c78 -38
120 -132 97 -217 -17 -61 -55 -102 -102 -109 -21 -4 -44 -13 -50 -20 -6 -8
-18 -14 -26 -14 -11 0 -11 4 -3 20 9 17 8 20 -9 20 -11 0 -23 5 -27 11 -5 8
12 10 60 5 36 -3 66 -3 66 0 0 2 -9 14 -19 25 -20 21 -43 19 -37 -4 1 -7 1 -9
-1 -4 -3 4 -13 7 -24 7 -10 0 -19 4 -19 9 0 13 -40 21 -40 8 0 -7 -5 -4 -11 6
-5 9 -17 17 -25 17 -8 0 -17 7 -20 15 -4 8 -13 15 -21 15 -9 0 -13 6 -10 13 3
8 -1 14 -9 14 -8 0 -14 -5 -14 -11 0 -6 -5 -4 -10 4 -5 8 -7 25 -5 37 3 13 7
34 10 47 12 60 103 125 174 126 19 0 53 -9 75 -20z m675 -76 c13 -9 29 -32 37
-50 27 -65 -30 -144 -104 -144 -23 0 -38 9 -61 37 -48 58 -40 116 22 153 39
24 75 25 106 4z m-824 -204 c10 -11 16 -20 13 -20 -3 0 -15 9 -28 20 -13 11
-19 20 -13 20 5 0 18 -9 28 -20z m5 -40 c0 -5 -5 -10 -11 -10 -5 0 -7 5 -4 10
3 6 8 10 11 10 2 0 4 -4 4 -10z m3791 -133 c24 -13 57 -41 72 -63 27 -38 27
-41 12 -71 -13 -26 -27 -35 -73 -49 -49 -14 -68 -15 -132 -5 -91 14 -144 38
-148 68 -5 37 26 81 81 113 66 38 125 40 188 7z m-2713 -98 c46 -23 102 -89
102 -121 0 -11 -6 -26 -14 -34 -21 -20 -143 -43 -201 -37 -61 6 -165 51 -165
71 0 24 39 80 71 103 61 43 140 50 207 18z m973 -264 c33 -17 89 -81 89 -101
0 -32 -43 -60 -100 -64 -117 -7 -169 2 -213 37 -23 17 -26 25 -18 45 13 34 63
78 107 94 42 15 92 11 135 -11z m1949 -150 c0 -5 -4 -4 -9 4 -5 8 -14 10 -22
5 -11 -6 -11 -4 0 10 11 13 16 14 22 4 5 -7 9 -17 9 -23z"/>
<path d="M7287 8771 c-4 -17 -3 -21 5 -13 5 5 8 16 6 23 -3 8 -7 3 -11 -10z"/>
<path d="M5338 8533 c7 -3 16 -2 19 1 4 3 -2 6 -13 5 -11 0 -14 -3 -6 -6z"/>
<path d="M6747 8529 c7 -7 15 -10 18 -7 3 3 -2 9 -12 12 -14 6 -15 5 -6 -5z"/>
<path d="M6830 8466 c0 -2 7 -7 16 -10 8 -3 12 -2 9 4 -6 10 -25 14 -25 6z"/>
<path d="M5745 8450 c-3 -6 1 -7 9 -4 18 7 21 14 7 14 -6 0 -13 -4 -16 -10z"/>
<path d="M5915 8319 c3 -8 31 -20 61 -28 71 -16 81 -9 11 8 -28 8 -58 18 -65
24 -9 7 -11 6 -7 -4z"/>
<path d="M6010 8230 c0 -5 5 -10 11 -10 5 0 7 5 4 10 -3 6 -8 10 -11 10 -2 0
-4 -4 -4 -10z"/>
<path d="M6632 8211 c-11 -6 -10 -10 4 -15 9 -3 19 -4 22 -1 3 3 -1 5 -9 5
-11 0 -11 2 1 10 8 5 11 10 5 10 -5 0 -16 -4 -23 -9z"/>
<path d="M6628 8173 c6 -2 18 -2 25 0 6 3 1 5 -13 5 -14 0 -19 -2 -12 -5z"/>
<path d="M6870 8170 c8 -5 20 -10 25 -10 6 0 3 5 -5 10 -8 5 -19 10 -25 10 -5
0 -3 -5 5 -10z"/>
<path d="M7390 8476 c0 -2 6 -9 14 -15 10 -9 15 -8 19 2 3 8 -3 13 -14 14 -10
1 -19 0 -19 -1z"/>
<path d="M7463 8385 c7 -7 14 -10 17 -6 3 3 9 9 13 12 4 4 -3 7 -17 7 -19 0
-22 -3 -13 -13z"/>
<path d="M7510 8389 c0 -5 5 -7 10 -4 6 3 10 8 10 11 0 2 -4 4 -10 4 -5 0 -10
-5 -10 -11z"/>
<path d="M7850 7920 c0 -5 5 -10 11 -10 5 0 7 5 4 10 -3 6 -8 10 -11 10 -2 0
-4 -4 -4 -10z"/>
<path d="M3981 7804 c0 -11 3 -14 6 -6 3 7 2 16 -1 19 -3 4 -6 -2 -5 -13z"/>
<path d="M5399 5579 c-45 -90 -105 -209 -134 -264 -113 -216 -315 -613 -315
-619 0 -3 236 -6 525 -6 298 0 525 4 525 9 0 5 -60 127 -134 272 -73 145 -186
374 -251 509 -65 135 -122 249 -126 254 -4 5 -44 -65 -90 -155z"/>
<path d="M2820 5105 l0 -788 75 7 c363 33 649 263 741 597 28 99 25 309 -4
414 -92 321 -354 523 -714 550 l-98 7 0 -787z"/>
<path d="M9076 4814 c-3 -9 -6 -26 -6 -38 0 -12 -7 -32 -16 -44 -8 -12 -13
-26 -10 -31 4 -5 2 -20 -3 -33 -9 -21 -10 -21 -11 -3 0 12 -9 -1 -20 -30 -11
-27 -20 -54 -19 -60 0 -5 8 9 17 33 12 28 21 39 28 32 6 -6 10 -4 11 9 1 10
13 31 27 46 28 30 34 61 14 68 -10 3 -10 11 -1 35 6 18 8 32 3 32 -4 0 -11 -7
-14 -16z m14 -79 c0 -8 -9 -19 -20 -25 -14 -7 -20 -7 -20 0 0 5 5 10 10 10 6
0 10 7 10 15 0 8 5 15 10 15 6 0 10 -7 10 -15z"/>
<path d="M9094 4799 c-4 -7 -3 -14 4 -17 7 -2 12 -13 13 -25 0 -22 0 -22 11 1
9 18 8 26 -4 38 -12 13 -17 13 -24 3z"/>
<path d="M9090 4679 c0 -5 5 -7 10 -4 6 3 10 8 10 11 0 2 -4 4 -10 4 -5 0 -10
-5 -10 -11z"/>
<path d="M8355 4530 c3 -5 11 -10 16 -10 6 0 7 5 4 10 -3 6 -11 10 -16 10 -6
0 -7 -4 -4 -10z"/>
<path d="M8383 4510 c-7 -11 -9 -21 -3 -25 5 -3 11 -1 15 4 3 6 13 7 22 4 12
-5 12 -2 -3 15 -10 12 -19 22 -19 22 0 0 -6 -9 -12 -20z"/>
<path d="M8353 4455 c0 -33 2 -45 4 -26 3 26 7 31 14 20 7 -11 9 -9 9 9 0 13
-4 21 -9 17 -5 -3 -12 5 -14 17 -2 13 -4 -4 -4 -37z"/>
<path d="M8394 4475 c-9 -22 1 -29 15 -11 8 10 9 16 1 21 -5 3 -13 -1 -16 -10z"/>
<path d="M8525 4420 c-3 -5 -1 -10 4 -10 6 0 11 5 11 10 0 6 -2 10 -4 10 -3 0
-8 -4 -11 -10z"/>
<path d="M8618 4413 c7 -3 16 -2 19 1 4 3 -2 6 -13 5 -11 0 -14 -3 -6 -6z"/>
<path d="M2028 3263 c6 -2 18 -2 25 0 6 3 1 5 -13 5 -14 0 -19 -2 -12 -5z"/>
<path d="M2601 1866 c-1 -11 -11 -30 -23 -43 -15 -16 -17 -22 -7 -18 21 8 43
49 36 67 -3 8 -6 6 -6 -6z"/>
<path d="M2535 1830 c3 -5 8 -10 11 -10 2 0 4 5 4 10 0 6 -5 10 -11 10 -5 0
-7 -4 -4 -10z"/>
<path d="M3090 1881 c0 -6 4 -13 10 -16 6 -3 7 1 4 9 -7 18 -14 21 -14 7z"/>
<path d="M3460 9431 c-19 -10 -46 -23 -60 -29 -14 -5 -74 -33 -133 -62 -128
-62 -138 -72 -283 -307 -107 -172 -164 -235 -281 -314 -43 -29 -135 -108 -205
-175 -120 -115 -135 -126 -260 -190 -276 -139 -330 -175 -464 -304 -77 -74
-92 -96 -56 -83 10 4 13 2 8 -5 -4 -7 -1 -12 8 -12 9 0 16 4 16 9 0 5 9 7 19
4 31 -8 221 60 221 79 0 12 -14 10 -30 -4 -12 -11 -12 -10 0 5 10 13 22 17 41
13 16 -3 34 1 45 10 19 14 19 14 0 12 -10 -2 -21 3 -23 10 -5 13 62 46 76 37
12 -7 111 35 111 47 0 5 8 8 18 7 9 -1 31 0 47 1 l30 3 -35 7 -35 7 40 3 c22
1 43 2 47 1 4 0 13 9 19 20 8 16 13 18 19 9 5 -8 17 -10 36 -6 21 6 25 9 14
16 -8 5 -12 10 -10 12 3 2 24 16 47 32 23 15 40 33 39 39 -2 7 -1 9 1 5 8 -14
33 -8 33 7 0 8 4 15 9 15 15 0 42 -50 35 -63 -4 -7 2 -4 13 6 28 24 40 21 17
-4 -19 -22 -19 -22 3 -10 12 6 25 16 28 21 6 10 0 12 -40 14 -14 1 -21 10 -26
36 -3 19 -9 42 -13 51 -4 10 -3 20 3 24 6 3 11 -1 11 -11 0 -16 1 -16 15 2 15
19 15 19 27 -1 11 -18 13 -14 24 35 l12 55 1 -42 c1 -43 20 -59 37 -31 4 7 3
8 -4 4 -16 -10 -15 7 0 22 10 10 10 15 -2 22 -12 7 -12 12 -2 22 9 9 12 9 12
-5 0 -9 7 -17 15 -17 8 0 15 7 15 15 0 8 5 15 11 15 5 0 8 -4 5 -8 -3 -5 1 -9
8 -9 11 0 12 4 3 18 -6 10 -15 15 -19 13 -4 -3 -8 6 -8 20 0 18 4 24 15 20 8
-4 15 -14 15 -23 0 -13 4 -12 18 6 19 24 87 73 102 73 6 0 10 5 10 11 0 5 4 8
9 5 5 -3 12 1 15 10 9 23 7 31 -3 15 -5 -7 -11 -9 -14 -4 -3 4 1 17 9 28 8 10
14 13 14 6 0 -7 5 -9 10 -6 6 4 8 15 5 25 -4 12 4 26 26 44 33 28 52 28 29 1
-7 -9 -10 -18 -7 -21 9 -9 27 33 21 50 -3 8 6 39 20 68 37 77 44 86 43 55 -1
-15 -5 -27 -9 -27 -5 0 -8 -5 -8 -11 0 -8 4 -8 14 1 8 6 12 19 9 27 -4 11 -2
14 5 9 8 -5 10 -2 6 9 -4 9 -2 15 3 13 6 -2 33 31 61 73 43 63 149 192 336
407 21 23 36 42 34 42 -2 0 -19 -9 -38 -19z m-680 -839 c0 -13 -12 -22 -22
-16 -10 6 -1 24 13 24 5 0 9 -4 9 -8z m-383 -358 c-3 -3 -12 -4 -19 -1 -8 3
-5 6 6 6 11 1 17 -2 13 -5z m-211 -69 c-22 -17 -36 -19 -36 -7 0 14 12 22 34
22 21 -1 21 -1 2 -15z m-61 -25 c-3 -5 -10 -10 -16 -10 -5 0 -9 5 -9 10 0 6 7
10 16 10 8 0 12 -4 9 -10z m-105 -70 c8 -5 11 -10 5 -10 -5 0 -17 5 -25 10 -8
5 -10 10 -5 10 6 0 17 -5 25 -10z"/>
<path d="M4171 9224 c0 -11 3 -14 6 -6 3 7 2 16 -1 19 -3 4 -6 -2 -5 -13z"/>
<path d="M4170 9195 c0 -5 5 -17 10 -25 5 -8 10 -10 10 -5 0 6 -5 17 -10 25
-5 8 -10 11 -10 5z"/>
<path d="M3437 9082 c-91 -56 -190 -140 -239 -202 -41 -52 -113 -180 -79 -140
12 14 26 35 31 47 7 17 15 21 35 17 22 -4 24 -3 13 10 -9 10 -15 11 -20 2 -6
-8 -8 -8 -8 1 0 19 20 26 35 13 18 -15 20 1 3 19 -11 10 -10 11 5 6 10 -5 17
-2 17 5 0 7 7 10 16 6 8 -3 13 -2 10 3 -9 14 60 84 74 76 8 -5 11 -4 6 3 -8
14 39 46 54 37 15 -10 40 14 33 31 -3 9 0 14 7 12 12 -3 97 89 88 97 -2 3 -39
-17 -81 -43z m-27 -82 c0 -5 -4 -10 -10 -10 -5 0 -10 5 -10 10 0 6 5 10 10 10
6 0 10 -4 10 -10z"/>
<path d="M2815 9039 c-22 -17 -91 -62 -152 -100 -109 -68 -142 -98 -216 -199
-43 -59 -88 -83 -215 -115 -110 -27 -150 -43 -171 -69 -12 -14 -8 -16 37 -16
28 0 63 5 79 12 15 6 35 13 43 13 8 1 24 3 35 4 15 2 11 6 -14 15 l-35 12 60
17 c33 9 68 17 76 17 9 0 18 3 20 8 2 4 22 22 45 40 23 18 45 42 49 54 5 17 8
18 16 7 8 -11 9 -10 4 3 -3 11 2 22 14 28 11 6 20 17 20 24 0 7 10 21 23 32
l22 19 -18 -22 c-18 -21 -18 -22 2 -42 20 -20 51 -19 51 1 0 5 5 6 10 3 6 -3
10 -1 10 4 0 17 53 72 78 82 13 5 21 13 17 18 -3 5 -1 12 5 16 5 3 10 0 10 -7
0 -7 7 -3 15 9 10 14 21 20 32 16 12 -5 15 -2 10 9 -3 10 0 19 9 22 10 4 13 1
9 -7 -10 -19 34 35 56 68 19 31 25 56 12 54 -5 0 -26 -14 -48 -30z"/>
<path d="M3279 8853 c-13 -16 -12 -17 4 -4 16 13 21 21 13 21 -2 0 -10 -8 -17
-17z"/>
<path d="M3001 8824 c-12 -27 -11 -28 4 -12 10 9 16 21 13 28 -2 7 -10 -1 -17
-16z"/>
<path d="M3182 8765 c0 -16 2 -22 5 -12 2 9 2 23 0 30 -3 6 -5 -1 -5 -18z"/>
<path d="M2510 8759 c0 -5 5 -7 10 -4 6 3 10 8 10 11 0 2 -4 4 -10 4 -5 0 -10
-5 -10 -11z"/>
<path d="M2530 8739 c0 -5 5 -7 10 -4 6 3 10 8 10 11 0 2 -4 4 -10 4 -5 0 -10
-5 -10 -11z"/>
<path d="M2937 8703 c3 -7 6 -13 8 -13 2 0 5 6 8 13 3 8 -1 14 -8 14 -7 0 -11
-6 -8 -14z"/>
<path d="M3342 8631 c-115 -117 -239 -294 -246 -349 -2 -15 -1 -21 1 -14 3 7
8 10 12 7 5 -2 19 7 32 21 17 18 19 23 6 18 -12 -4 -17 -1 -17 11 0 9 4 14 9
10 5 -3 12 -1 16 5 3 5 2 10 -4 10 -6 0 -8 7 -5 15 4 8 10 12 15 9 5 -3 6 3 2
12 -5 13 -3 15 7 9 9 -5 11 -4 6 4 -8 12 52 88 66 84 4 -2 4 5 1 14 -5 12 -2
15 10 10 11 -4 14 -2 11 8 -6 14 61 95 79 95 13 0 57 48 57 62 0 15 -10 8 -58
-41z m-219 -342 c-9 -9 -12 -7 -10 9 1 14 5 18 11 12 7 -7 6 -14 -1 -21z"/>
<path d="M2897 8621 c-24 -42 -21 -52 4 -13 12 18 20 35 17 37 -2 2 -12 -9
-21 -24z"/>
<path d="M2253 8593 c9 -2 23 -2 30 0 6 3 -1 5 -18 5 -16 0 -22 -2 -12 -5z"/>
<path d="M2800 8565 c0 -5 5 -17 10 -25 5 -8 10 -10 10 -5 0 6 -5 17 -10 25
-5 8 -10 11 -10 5z"/>
<path d="M2836 8549 c3 -5 -3 -21 -12 -36 l-16 -28 26 28 c29 32 33 44 11 44
-8 0 -12 -4 -9 -8z"/>
<path d="M2753 8464 c-3 -8 -12 -13 -20 -10 -8 4 -13 1 -11 -5 6 -18 20 -15
36 9 8 12 11 22 8 22 -4 0 -9 -7 -13 -16z"/>
<path d="M2762 8440 c-7 -11 -9 -20 -4 -20 4 0 13 9 20 20 7 11 9 20 4 20 -4
0 -13 -9 -20 -20z"/>
<path d="M2735 8400 c-4 -6 -10 -8 -14 -6 -4 3 -18 -8 -30 -24 -12 -17 -20
-30 -17 -30 7 0 81 70 74 70 -4 0 -10 -5 -13 -10z"/>
<path d="M2515 8239 c-4 -6 -14 -8 -24 -4 -11 4 -13 3 -5 -5 12 -12 44 -4 44
11 0 12 -7 11 -15 -2z"/>
<path d="M3212 8181 c-24 -25 -38 -47 -32 -49 12 -4 3 -22 -11 -22 -6 0 -7 5
-4 10 3 6 2 10 -3 10 -11 0 -26 -30 -23 -45 2 -5 -1 -7 -5 -2 -4 4 -20 -5 -36
-20 -33 -31 -38 -55 -6 -27 12 10 18 13 14 7 -4 -7 -3 -21 3 -30 7 -14 9 -10
7 19 -2 21 0 35 5 33 12 -8 40 7 36 19 -3 7 4 13 14 13 12 1 17 -3 13 -10 -3
-7 2 -3 12 8 16 20 16 20 11 -3 -3 -12 -1 -20 4 -16 5 3 9 12 9 20 0 8 4 14 9
14 10 0 34 82 29 102 -2 9 -18 -2 -46 -31z"/>
<path d="M2428 8203 c7 -3 16 -2 19 1 4 3 -2 6 -13 5 -11 0 -14 -3 -6 -6z"/>
<path d="M2358 8193 c7 -3 16 -2 19 1 4 3 -2 6 -13 5 -11 0 -14 -3 -6 -6z"/>
<path d="M2704 8156 c-29 -19 -121 -69 -205 -110 -180 -87 -253 -143 -323
-244 -89 -127 -167 -261 -160 -273 4 -7 3 -9 -3 -6 -6 4 -38 -36 -73 -91 -174
-269 -262 -326 -541 -352 -66 -6 -149 -20 -182 -30 -113 -36 -213 -132 -243
-237 -18 -62 -13 -109 18 -165 36 -63 63 -71 229 -66 160 6 257 31 354 90 192
118 281 270 326 561 11 72 13 76 29 62 18 -17 32 -11 23 11 -3 8 0 14 6 14 6
0 11 7 11 15 0 8 5 15 10 15 6 0 10 9 10 19 0 11 4 22 9 25 5 3 27 43 49 88
22 46 48 92 59 103 10 11 17 27 15 35 -1 9 4 24 13 35 15 19 15 19 10 -10 l-5
-30 11 30 c12 31 89 115 105 115 5 0 15 9 22 20 7 11 32 29 57 41 25 12 45 26
45 31 0 6 7 8 15 5 8 -4 17 -2 20 3 4 6 13 10 22 10 8 0 28 11 45 25 16 14 36
25 44 25 8 0 33 12 56 28 69 46 82 52 102 46 13 -4 16 -2 11 6 -4 7 1 14 15
17 12 3 19 11 16 19 -3 8 0 11 10 7 13 -5 19 8 14 32 -1 6 2 7 6 3 10 -11 33
23 34 50 0 25 -16 62 -28 62 -4 0 -30 -16 -58 -34z m-1350 -1332 c23 -22 20
-71 -3 -84 -43 -23 -81 1 -81 50 0 45 52 66 84 34z"/>
<path d="M2986 7929 c-62 -82 -67 -93 -57 -115 15 -34 13 -44 -3 -15 l-13 24
-26 -44 c-53 -92 -105 -279 -77 -279 7 0 9 8 5 20 -4 11 -2 20 4 20 6 0 11 12
11 28 0 21 2 24 10 12 8 -13 10 -12 10 3 0 10 4 16 9 13 5 -4 7 2 4 13 -6 22
32 100 52 108 8 3 15 11 15 18 0 8 6 20 13 27 7 7 22 34 32 61 10 26 22 47 27
47 6 0 8 10 5 23 -7 30 6 66 18 47 5 -9 4 -15 -3 -18 -17 -5 -15 -19 3 -26 10
-3 15 -1 13 7 -4 24 14 62 40 84 14 12 23 26 19 30 -5 4 -12 1 -17 -7 -7 -10
-10 -11 -10 -2 0 25 -17 9 -84 -79z m-139 -311 c-3 -8 -6 -5 -6 6 -1 11 2 17
5 13 3 -3 4 -12 1 -19z"/>
<path d="M2065 7914 c-38 -30 -132 -73 -191 -88 -32 -8 -123 -22 -201 -31
-232 -26 -317 -65 -433 -201 -36 -41 -43 -53 -46 -85 -3 -23 0 -27 14 -22 9 3
30 18 46 32 16 14 25 19 21 11 -5 -8 7 -3 27 13 20 15 41 27 46 27 6 0 13 7
16 16 3 9 15 14 28 13 13 -2 45 5 71 16 32 12 51 15 55 8 5 -7 37 -8 97 -2
138 12 142 11 148 -11 7 -28 27 -25 27 5 0 20 5 25 25 25 14 0 28 7 31 15 8
19 44 20 44 1 0 -9 8 -13 23 -9 21 4 22 4 3 -11 -11 -9 -23 -16 -28 -16 -4 0
-8 -5 -8 -11 0 -6 13 -1 30 11 19 14 27 26 23 37 -4 10 -2 14 4 10 13 -8 68
74 122 182 42 82 43 93 6 65z"/>
<path d="M4531 7673 c-1 -6 -4 -20 -7 -30 -5 -17 -5 -17 6 0 6 10 9 23 6 30
-3 9 -5 9 -5 0z"/>
<path d="M4543 7638 c-8 -30 -8 -48 0 -65 l11 -24 13 23 c7 13 12 30 12 38 0
9 -5 5 -13 -9 -12 -22 -13 -20 -8 27 6 63 0 67 -15 10z"/>
<path d="M1847 7630 c-3 -12 0 -20 8 -20 7 0 15 9 18 20 3 12 0 20 -8 20 -7 0
-15 -9 -18 -20z"/>
<path d="M3025 7629 c-104 -61 -118 -207 -28 -279 28 -22 28 -22 3 -15 -42 12
-44 11 -56 -25 -13 -37 -3 -70 20 -70 7 0 21 -9 31 -20 14 -16 31 -20 76 -20
52 0 61 3 94 35 24 22 35 40 31 50 -3 8 -1 15 4 15 6 0 10 17 10 39 0 21 7 55
15 74 20 48 19 93 -4 142 -28 61 -53 78 -119 82 -32 2 -66 -2 -77 -8z m135
-16 c16 -9 33 -27 39 -40 14 -30 14 -113 1 -113 -5 0 -10 -6 -10 -13 0 -8 -10
-22 -22 -33 -22 -18 -22 -18 -8 0 14 18 13 18 -9 11 -14 -4 -21 -3 -18 2 3 5
-7 7 -24 5 -32 -5 -109 24 -109 41 0 5 -6 7 -12 4 -17 -6 -22 57 -7 86 6 12
23 32 37 44 33 28 101 31 142 6z m-129 -210 c13 -16 12 -17 -3 -4 -17 13 -22
21 -14 21 2 0 10 -8 17 -17z m98 -14 c-17 -11 -56 -12 -63 -1 -2 4 14 8 36 8
26 1 35 -2 27 -7z m71 -39 c0 -5 -3 -10 -7 -10 -5 0 -19 -3 -33 -6 l-25 -6 25
15 c31 18 40 20 40 7z"/>
<path d="M2458 7572 c-100 -9 -162 -157 -103 -244 25 -36 103 -77 124 -64 5 4
12 2 15 -3 7 -10 -41 -21 -94 -21 -36 0 -38 -2 -42 -36 -3 -24 0 -38 9 -41 7
-3 10 -9 7 -14 -3 -6 14 -8 40 -5 145 13 229 161 196 349 -13 78 -21 91 -38
61 -5 -9 -15 -14 -21 -10 -6 4 -8 12 -5 18 4 7 2 8 -4 4 -6 -4 -20 -3 -29 1
-10 5 -35 7 -55 5z m90 -39 c20 -15 32 -21 28 -15 -4 7 -3 12 1 12 5 0 10 -31
11 -70 3 -66 1 -70 -29 -100 -18 -17 -44 -33 -58 -37 -30 -8 -107 18 -103 35
1 7 -7 23 -19 35 -17 18 -20 31 -16 67 10 92 109 132 185 73z"/>
<path d="M1815 7540 c-3 -6 1 -7 9 -4 18 7 21 14 7 14 -6 0 -13 -4 -16 -10z"/>
<path d="M1175 7500 c-3 -6 -3 -19 0 -30 6 -20 -9 -28 -18 -10 -3 6 -4 5 -3
-2 1 -7 12 -14 24 -14 18 -1 20 2 11 18 -6 11 -8 26 -5 34 6 16 0 19 -9 4z"/>
<path d="M1755 7500 c-3 -6 1 -7 9 -4 18 7 21 14 7 14 -6 0 -13 -4 -16 -10z"/>
<path d="M2791 7474 c0 -11 3 -14 6 -6 3 7 2 16 -1 19 -3 4 -6 -2 -5 -13z"/>
<path d="M2786 7237 c3 -10 9 -15 12 -12 3 3 0 11 -7 18 -10 9 -11 8 -5 -6z"/>
<path d="M2880 7030 c0 -5 4 -10 9 -10 6 0 13 5 16 10 3 6 -1 10 -9 10 -9 0
-16 -4 -16 -10z"/>
<path d="M2898 6953 c12 -2 30 -2 40 0 9 3 -1 5 -23 4 -22 0 -30 -2 -17 -4z"/>
<path d="M1175 6459 c-44 -4 -139 -5 -211 -2 -167 7 -215 0 -259 -39 -19 -16
-35 -38 -35 -48 0 -11 -4 -22 -10 -25 -5 -3 -10 -17 -10 -31 0 -13 -4 -32 -10
-42 -5 -9 -13 -57 -19 -106 -5 -49 -14 -91 -19 -95 -15 -9 -2 -61 14 -61 8 0
14 3 14 8 0 19 71 44 149 53 139 16 212 50 303 143 37 37 47 54 43 70 -4 14
-3 17 3 8 6 -9 21 6 55 55 25 37 55 78 66 90 22 23 26 34 14 31 -5 0 -44 -4
-88 -9z m-470 -289 c3 -5 0 -10 -8 -10 -17 0 -27 -21 -27 -53 0 -24 -11 -14
-28 26 -7 16 -8 26 -3 22 6 -3 16 1 23 9 15 18 34 20 43 6z m-58 -113 c1 -11
-1 -17 -4 -13 -3 3 -12 1 -20 -5 -8 -8 -13 -8 -13 -1 0 37 35 55 37 19z m38
13 c-3 -5 -11 -10 -16 -10 -6 0 -7 5 -4 10 3 6 11 10 16 10 6 0 7 -4 4 -10z"/>
<path d="M1560 5346 c0 -8 4 -17 9 -20 5 -4 7 3 4 14 -6 23 -13 26 -13 6z"/>
<path d="M1498 5295 c-3 -3 -79 -12 -169 -20 -205 -19 -230 -22 -304 -47 -144
-49 -239 -125 -326 -260 -89 -140 -126 -268 -89 -313 19 -23 67 -14 117 19 52
36 151 71 253 91 49 10 110 30 145 48 70 37 209 167 303 282 36 44 69 79 74
77 5 -1 7 2 4 7 -4 5 2 24 13 43 10 18 22 43 26 56 5 18 3 22 -18 22 -13 0
-26 -2 -29 -5z"/>
<path d="M1581 5263 c-1 -28 9 -29 32 -3 14 17 14 20 2 20 -8 0 -15 -8 -16
-17 0 -15 -2 -15 -9 2 -8 19 -9 19 -9 -2z"/>
<path d="M1675 5190 c3 -5 8 -10 11 -10 2 0 4 5 4 10 0 6 -5 10 -11 10 -5 0
-7 -4 -4 -10z"/>
<path d="M536 4564 c-4 -9 -4 -19 -1 -22 2 -3 7 3 11 12 4 9 4 19 1 22 -2 3
-7 -3 -11 -12z"/>
<path d="M8966 3639 c-114 -39 -194 -114 -264 -248 -41 -78 -72 -167 -72 -207
0 -21 1 -21 43 -6 34 13 85 17 267 17 l225 0 40 26 c47 32 69 56 98 112 25 49
34 149 17 201 -34 105 -206 156 -354 105z"/>
<path d="M8345 3236 c-99 -50 -196 -101 -215 -113 -19 -12 -83 -42 -142 -68
-125 -54 -182 -105 -228 -201 -17 -34 -37 -67 -46 -75 -40 -33 -59 -91 -58
-180 0 -48 6 -112 14 -143 13 -54 15 -57 67 -82 59 -29 96 -29 161 3 28 13 44
32 63 73 15 29 24 61 21 69 -3 8 -1 12 4 9 14 -9 17 143 4 178 -14 37 -45 70
-93 101 -30 19 -36 27 -27 38 8 10 8 14 -2 18 -7 3 -3 6 10 6 13 1 20 5 17 11
-3 5 7 12 22 15 15 4 35 10 43 16 18 11 24 13 77 29 23 7 44 18 47 25 2 7 17
16 33 19 15 4 53 22 83 39 81 47 198 97 202 85 2 -5 11 -6 21 -3 9 4 14 11 11
16 -3 5 6 9 20 9 31 0 44 22 63 104 7 34 16 69 19 79 3 9 2 17 -3 16 -4 0 -89
-42 -188 -93z m-426 -471 c82 -75 43 -138 -84 -136 -71 1 -103 11 -136 39 -20
17 -16 34 19 80 29 40 52 51 114 51 41 1 53 -4 87 -34z"/>
<path d="M9100 3048 c-30 -11 -127 -28 -215 -38 -202 -23 -245 -33 -325 -73
-95 -47 -106 -60 -234 -275 -37 -62 -75 -122 -84 -134 -46 -56 -97 -115 -118
-137 -13 -13 -24 -27 -24 -32 0 -4 -12 -14 -27 -21 -33 -16 -42 -38 -14 -38
11 0 22 4 25 9 3 5 23 12 43 16 39 7 89 32 182 93 128 83 217 113 391 131 186
20 263 53 356 155 94 103 140 212 132 317 -4 52 -11 54 -88 27z m-184 -437
c-3 -5 -16 -11 -28 -14 -22 -6 -22 -5 -4 8 22 17 40 20 32 6z m-839 -297 c-3
-3 -12 -4 -19 -1 -8 3 -5 6 6 6 11 1 17 -2 13 -5z"/>
<path d="M7570 3030 c0 -5 8 -13 17 -19 13 -7 17 -21 16 -53 -1 -38 0 -40 9
-18 12 32 -6 100 -27 100 -8 0 -15 -4 -15 -10z"/>
<path d="M7650 3020 c0 -11 2 -20 5 -20 2 0 9 9 15 20 9 16 8 20 -5 20 -8 0
-15 -9 -15 -20z"/>
<path d="M7121 2934 c0 -11 3 -14 6 -6 3 7 2 16 -1 19 -3 4 -6 -2 -5 -13z"/>
<path d="M9070 2530 c-30 -21 -91 -55 -136 -74 -78 -34 -130 -49 -334 -96
-139 -32 -206 -69 -330 -182 -87 -80 -143 -105 -264 -119 -272 -30 -405 -152
-615 -566 -147 -292 -197 -368 -336 -524 -130 -145 -177 -200 -173 -204 9 -9
283 109 348 150 50 32 100 108 171 265 97 212 118 242 238 337 53 42 148 127
211 187 122 117 136 126 381 239 115 53 186 100 304 201 90 77 113 88 134 62
17 -20 2 -47 -68 -119 -85 -89 -188 -156 -393 -255 l-186 -91 -119 -113 c-65
-63 -148 -135 -185 -162 -78 -55 -136 -117 -177 -190 -33 -57 -48 -106 -33
-106 12 0 250 174 309 225 23 20 61 68 84 108 39 66 44 70 49 47 4 -14 3 -27
-1 -30 -11 -8 -21 -68 -14 -90 5 -17 10 -19 21 -9 11 9 14 7 14 -9 0 -12 -4
-23 -9 -26 -14 -9 -39 4 -44 22 -2 10 -4 2 -4 -15 0 -18 4 -33 9 -33 5 0 6 -4
3 -10 -3 -6 1 -7 10 -4 9 4 13 9 10 12 -3 3 8 11 25 18 33 14 38 35 15 54 -8
7 -12 16 -9 21 9 15 24 10 24 -8 0 -10 4 -24 9 -31 6 -10 11 -9 22 4 12 15 12
17 0 9 -9 -5 -12 -4 -7 3 4 6 14 8 24 5 9 -3 14 -3 10 1 -9 11 34 52 50 48 8
-2 11 1 8 6 -3 5 6 15 19 22 14 7 32 24 40 36 8 13 21 21 28 18 15 -5 109 75
101 87 -3 5 1 6 9 4 20 -8 303 262 300 286 -2 10 2 19 8 19 5 0 7 -4 4 -10 -9
-14 8 -13 23 2 16 16 15 31 0 22 -7 -4 -5 2 6 14 10 12 22 19 26 17 14 -8 219
230 373 432 111 148 114 162 17 93z m-515 -652 c-11 -6 -26 -18 -32 -26 -10
-12 -13 -12 -13 -3 0 17 30 40 50 40 10 0 9 -3 -5 -11z m-118 -110 c-3 -8 -6
-5 -6 6 -1 11 2 17 5 13 3 -3 4 -12 1 -19z m-47 -41 c0 -2 -16 -18 -35 -37
-19 -19 -35 -31 -35 -27 0 4 14 20 31 37 30 28 39 34 39 27z m-100 -91 c0 -3
-4 -8 -10 -11 -5 -3 -10 -1 -10 4 0 6 5 11 10 11 6 0 10 -2 10 -4z"/>
<path d="M7434 2418 c-39 -59 -87 -109 -170 -178 -58 -48 -76 -70 -103 -129
-35 -75 -50 -141 -33 -141 29 0 219 259 302 413 46 85 48 100 4 35z"/>
<path d="M7995 2310 c-3 -6 1 -7 9 -4 18 7 21 14 7 14 -6 0 -13 -4 -16 -10z"/>
<path d="M7625 2239 c-4 -6 -5 -12 -2 -15 2 -3 7 2 10 11 7 17 1 20 -8 4z"/>
<path d="M7577 2175 c-29 -43 -33 -60 -15 -71 6 -4 8 -3 5 4 -4 5 -3 21 2 34
10 23 10 23 10 1 1 -25 56 -69 66 -53 3 5 -1 10 -10 10 -9 0 -13 5 -10 10 3 6
0 10 -8 10 -19 0 -30 27 -15 36 7 4 8 3 4 -4 -4 -7 -3 -12 3 -12 17 0 19 14 7
45 l-12 29 -27 -39z"/>
<path d="M7652 2144 c-10 -12 -10 -14 2 -14 8 0 18 5 21 10 4 6 12 7 18 4 7
-4 8 -3 4 1 -12 14 -31 14 -45 -1z"/>
<path d="M7580 2086 c0 -9 5 -16 10 -16 6 0 10 4 10 9 0 6 -4 13 -10 16 -5 3
-10 -1 -10 -9z"/>
<path d="M8665 1990 c-3 -5 -1 -10 4 -10 6 0 11 5 11 10 0 6 -2 10 -4 10 -3 0
-8 -4 -11 -10z"/>
<path d="M7278 1953 c-120 -127 -278 -352 -278 -397 0 -15 4 -15 32 5 91 65
244 255 277 344 35 94 27 108 -31 48z"/>
<path d="M7188 1474 c-199 -229 -262 -314 -246 -330 14 -13 105 51 178 125 45
46 92 106 118 152 43 77 64 149 44 149 -6 0 -48 -43 -94 -96z"/>
<path d="M6435 1229 c-4 -6 -5 -12 -2 -15 2 -3 7 2 10 11 7 17 1 20 -8 4z"/>
</g>
</svg>
